<svg width="106" height="25" viewBox="0 0 106 25" fill="none" xmlns="http://www.w3.org/2000/svg">
<rect width="106" height="25" rx="3" fill="#999999"/>
<path d="M13.6934 16H12.4043V12.4604H8.78418V16H7.50049V8.14746H8.78418V11.3594H12.4043V8.14746H13.6934V16ZM20.2031 16H15.7612V8.14746H20.2031V9.23242H17.0449V11.3701H20.0044V12.4443H17.0449V14.9097H20.2031V16ZM24.6182 16H23.3345V9.24854H21.0249V8.14746H26.9277V9.24854H24.6182V16ZM30.9937 8.14746H33.3247C34.4061 8.14746 35.1867 8.30501 35.6665 8.62012C36.1499 8.93522 36.3916 9.43294 36.3916 10.1133C36.3916 10.5716 36.2734 10.953 36.0371 11.2573C35.8008 11.5617 35.4606 11.7533 35.0166 11.832V11.8857C35.568 11.9896 35.9727 12.1955 36.2305 12.5034C36.4919 12.8078 36.6226 13.2214 36.6226 13.7441C36.6226 14.4495 36.3755 15.0028 35.8813 15.4038C35.3908 15.8013 34.7069 16 33.8296 16H30.9937V8.14746ZM32.2773 11.3916H33.5127C34.0498 11.3916 34.4419 11.3075 34.689 11.1392C34.936 10.9673 35.0596 10.6772 35.0596 10.269C35.0596 9.90023 34.9253 9.63346 34.6567 9.46875C34.3918 9.30404 33.9692 9.22168 33.3892 9.22168H32.2773V11.3916ZM32.2773 12.4336V14.9204H33.6416C34.1787 14.9204 34.5833 14.8184 34.8555 14.6143C35.1312 14.4066 35.269 14.0807 35.269 13.6367C35.269 13.2285 35.1294 12.9259 34.8501 12.729C34.5708 12.5321 34.1465 12.4336 33.5771 12.4336H32.2773ZM47.3057 16H46.0166V12.4604H42.3965V16H41.1128V8.14746H42.3965V11.3594H46.0166V8.14746H47.3057V16ZM54.2451 16L53.4609 13.8193H50.4585L49.6904 16H48.3369L51.2749 8.11523H52.6714L55.6094 16H54.2451ZM53.1226 12.7129L52.3867 10.5752C52.333 10.432 52.2578 10.2064 52.1611 9.89844C52.068 9.59049 52.0036 9.36491 51.9678 9.22168C51.8711 9.66211 51.7297 10.1437 51.5435 10.6665L50.8345 12.7129H53.1226ZM62.5381 16H61.2544V9.24854H59.02C58.7371 11.5402 58.5098 13.0996 58.3379 13.9268C58.1696 14.7539 57.9315 15.3304 57.6235 15.6562C57.3156 15.9785 56.9074 16.1343 56.3989 16.1235C56.1375 16.1235 55.8887 16.0788 55.6523 15.9893V14.9204C55.8564 15.0099 56.0552 15.0547 56.2485 15.0547C56.5063 15.0547 56.7069 14.9007 56.8501 14.5928C56.9969 14.2812 57.1562 13.5955 57.3281 12.5356C57.5036 11.4757 57.7113 10.013 57.9512 8.14746H62.5381V16ZM64.6167 8.14746H65.793V12.2295C65.793 12.6556 65.7822 13.0871 65.7607 13.5239C65.7393 13.9572 65.7231 14.2508 65.7124 14.4048H65.7607L69.7729 8.14746H71.2715V16H70.0898V11.9502C70.0898 11.3307 70.1239 10.5788 70.1919 9.69434H70.1489L66.1206 16H64.6167V8.14746ZM79.0811 16H77.792V12.8633C77.3086 13.0352 76.8771 13.1587 76.4976 13.2339C76.1216 13.3091 75.742 13.3467 75.3589 13.3467C74.6177 13.3467 74.0448 13.173 73.6401 12.8257C73.2391 12.4748 73.0386 11.9788 73.0386 11.3379V8.14746H74.3276V11.0371C74.3276 11.4453 74.4279 11.7497 74.6284 11.9502C74.8325 12.1507 75.1655 12.251 75.6274 12.251C75.9676 12.251 76.2988 12.2205 76.6211 12.1597C76.9434 12.0952 77.3337 11.986 77.792 11.832V8.14746H79.0811V16ZM81.1489 8.14746H82.3252V12.2295C82.3252 12.6556 82.3145 13.0871 82.293 13.5239C82.2715 13.9572 82.2554 14.2508 82.2446 14.4048H82.293L86.3052 8.14746H87.8037V16H86.6221V11.9502C86.6221 11.3307 86.6561 10.5788 86.7241 9.69434H86.6812L82.6528 16H81.1489V8.14746ZM89.8608 8.14746H91.0371V12.2295C91.0371 12.6556 91.0264 13.0871 91.0049 13.5239C90.9834 13.9572 90.9673 14.2508 90.9565 14.4048H91.0049L95.0171 8.14746H96.5156V16H95.334V11.9502C95.334 11.3307 95.368 10.5788 95.436 9.69434H95.3931L91.3647 16H89.8608V8.14746Z" fill="white"/>
</svg>
