<svg width="82" height="25" viewBox="0 0 82 25" fill="none" xmlns="http://www.w3.org/2000/svg">
<rect width="82" height="25" rx="3" fill="#01BF4D"/>
<path d="M8.24707 8.14746H10.5781C11.6595 8.14746 12.4401 8.30501 12.9199 8.62012C13.4033 8.93522 13.645 9.43294 13.645 10.1133C13.645 10.5716 13.5269 10.953 13.2905 11.2573C13.0542 11.5617 12.714 11.7533 12.27 11.832V11.8857C12.8215 11.9896 13.2261 12.1955 13.4839 12.5034C13.7453 12.8078 13.876 13.2214 13.876 13.7441C13.876 14.4495 13.6289 15.0028 13.1348 15.4038C12.6442 15.8013 11.9603 16 11.083 16H8.24707V8.14746ZM9.53076 11.3916H10.7661C11.3032 11.3916 11.6953 11.3075 11.9424 11.1392C12.1895 10.9673 12.313 10.6772 12.313 10.269C12.313 9.90023 12.1787 9.63346 11.9102 9.46875C11.6452 9.30404 11.2227 9.22168 10.6426 9.22168H9.53076V11.3916ZM9.53076 12.4336V14.9204H10.895C11.4321 14.9204 11.8368 14.8184 12.1089 14.6143C12.3846 14.4066 12.5225 14.0807 12.5225 13.6367C12.5225 13.2285 12.3828 12.9259 12.1035 12.729C11.8242 12.5321 11.3999 12.4336 10.8306 12.4336H9.53076ZM24.5591 16H23.27V12.4604H19.6499V16H18.3662V8.14746H19.6499V11.3594H23.27V8.14746H24.5591V16ZM31.4985 16L30.7144 13.8193H27.7119L26.9438 16H25.5903L28.5283 8.11523H29.9248L32.8628 16H31.4985ZM30.376 12.7129L29.6401 10.5752C29.5864 10.432 29.5112 10.2064 29.4146 9.89844C29.3215 9.59049 29.257 9.36491 29.2212 9.22168C29.1245 9.66211 28.9831 10.1437 28.7969 10.6665L28.0879 12.7129H30.376ZM39.7915 16H38.5078V9.24854H36.2734C35.9906 11.5402 35.7632 13.0996 35.5913 13.9268C35.423 14.7539 35.1849 15.3304 34.877 15.6562C34.569 15.9785 34.1608 16.1343 33.6523 16.1235C33.391 16.1235 33.1421 16.0788 32.9058 15.9893V14.9204C33.1099 15.0099 33.3086 15.0547 33.502 15.0547C33.7598 15.0547 33.9603 14.9007 34.1035 14.5928C34.2503 14.2812 34.4097 13.5955 34.5815 12.5356C34.757 11.4757 34.9647 10.013 35.2046 8.14746H39.7915V16ZM41.8701 8.14746H43.0464V12.2295C43.0464 12.6556 43.0356 13.0871 43.0142 13.5239C42.9927 13.9572 42.9766 14.2508 42.9658 14.4048H43.0142L47.0264 8.14746H48.5249V16H47.3433V11.9502C47.3433 11.3307 47.3773 10.5788 47.4453 9.69434H47.4023L43.374 16H41.8701V8.14746ZM56.3345 16H55.0454V12.8633C54.562 13.0352 54.1305 13.1587 53.751 13.2339C53.375 13.3091 52.9954 13.3467 52.6123 13.3467C51.8711 13.3467 51.2982 13.173 50.8936 12.8257C50.4925 12.4748 50.292 11.9788 50.292 11.3379V8.14746H51.5811V11.0371C51.5811 11.4453 51.6813 11.7497 51.8818 11.9502C52.0859 12.1507 52.4189 12.251 52.8809 12.251C53.221 12.251 53.5522 12.2205 53.8745 12.1597C54.1968 12.0952 54.5871 11.986 55.0454 11.832V8.14746H56.3345V16ZM58.4023 8.14746H59.5786V12.2295C59.5786 12.6556 59.5679 13.0871 59.5464 13.5239C59.5249 13.9572 59.5088 14.2508 59.498 14.4048H59.5464L63.5586 8.14746H65.0571V16H63.8755V11.9502C63.8755 11.3307 63.9095 10.5788 63.9775 9.69434H63.9346L59.9062 16H58.4023V8.14746ZM67.1143 8.14746H68.2905V12.2295C68.2905 12.6556 68.2798 13.0871 68.2583 13.5239C68.2368 13.9572 68.2207 14.2508 68.21 14.4048H68.2583L72.2705 8.14746H73.769V16H72.5874V11.9502C72.5874 11.3307 72.6214 10.5788 72.6895 9.69434H72.6465L68.6182 16H67.1143V8.14746Z" fill="white"/>
</svg>
