<svg width="82" height="25" viewBox="0 0 82 25" fill="none" xmlns="http://www.w3.org/2000/svg">
<rect width="82" height="25" rx="3" fill="#FFC700"/>
<path d="M23.563 16H22.5474L25.4849 8H26.4849L29.4224 16H28.4067L26.0161 9.26562H25.9536L23.563 16ZM23.938 12.875H28.0317V13.7344H23.938V12.875ZM35.3716 16L32.6216 12.3281H31.6372V16H30.6685V8H31.6372V11.4687H32.0591L35.2622 8H36.4185L33.1841 11.5156L36.5278 16H35.3716ZM44.5767 15.0781L44.4673 17.8906H43.4673V16H42.9048V15.0781H44.5767ZM37.7798 16V8H38.7017V15.1094H42.8267V8H43.7485V16H37.7798ZM46.0405 8H46.9937V14.2969H47.0718L51.4468 8H52.3843V16H51.4155V9.71875H51.3374L46.978 16H46.0405V8ZM59.7603 16H58.7915V8.85937H57.0884C56.6561 8.85937 56.3084 8.92578 56.0454 9.05859C55.7824 9.1888 55.591 9.3737 55.4712 9.61328C55.3514 9.85286 55.2915 10.1328 55.2915 10.4531C55.2915 10.7734 55.3501 11.0495 55.4673 11.2812C55.5871 11.5104 55.7772 11.6875 56.0376 11.8125C56.3006 11.9375 56.6457 12 57.0728 12H59.229V12.875H57.0415C56.4217 12.875 55.9126 12.7721 55.5142 12.5664C55.1157 12.3581 54.8201 12.0716 54.6274 11.707C54.4347 11.3424 54.3384 10.9245 54.3384 10.4531C54.3384 9.98177 54.4347 9.5612 54.6274 9.19141C54.8201 8.82161 55.117 8.53125 55.5181 8.32031C55.9191 8.10677 56.4321 8 57.0571 8H59.7603V16ZM55.9946 12.4062H57.0884L55.1509 16H54.0259L55.9946 12.4062Z" fill="black"/>
</svg>
